<svg xmlns="http://www.w3.org/2000/svg" viewBox="0 0 500 500" role="img" aria-label="Anda Bot">
  <rect width="500" height="500" rx="64" fill="#07110f"/>
  <path fill="#f1a64e" d="M140.877 45.4715C144.691 43.1638 148.543 40.9857 152.432 38.9375C138.171 21.7498 116.421 11.7218 93.4031 11.7218C51.8693 11.7218 18.1993 43.7527 18.1993 83.2647C18.1993 107.158 30.7372 129.473 51.6193 142.748C55.641 134.894 60.1592 127.122 65.1738 119.434C85.4017 88.42 110.636 63.7659 140.877 45.4715ZM437.766 119.434C442.76 127.091 447.262 134.831 451.272 142.653C472.068 129.364 484.542 107.097 484.542 83.2647C484.542 43.7527 450.871 11.7218 409.34 11.7218C386.356 11.7218 364.634 21.72 350.371 38.8643C354.307 40.9338 358.205 43.1362 362.064 45.4715C392.305 63.7659 417.539 88.42 437.766 119.434Z"/>
  <path fill="#f4eee3" d="M249.348 7.00129C289.312 7.09033 326.333 17.457 360.41 38.1014C390.919 56.583 416.376 81.4891 436.784 112.82C455.937 142.229 467.912 172.839 472.707 204.652C477.658 237.504 474.014 265.733 461.773 289.339C429.681 351.235 359.059 383.549 249.908 386.279C249.667 386.294 249.424 386.303 249.179 386.303H248.831C248.584 386.303 248.341 386.294 248.099 386.279C138.949 383.549 68.3279 351.235 36.2349 289.339C23.9951 265.733 20.3507 237.504 25.3017 204.652C30.0961 172.839 42.0708 142.229 61.2256 112.82C81.632 81.4891 107.089 56.583 137.598 38.1014C171.676 17.457 208.697 7.09033 248.659 7.00129H249.348Z" transform="translate(1 46)"/>
  <path fill="#07110f" d="M105.277 204.897C68.648 153.108 149.233 99.5935 187.695 125.487C203.819 137.769 204.888 149.626 199.903 163.175C194.918 176.386 180.319 181.467 166.076 191.292C153.158 200.2 160.022 214.665 146.491 221.101C136.662 225.777 114.435 217.843 105.277 204.897ZM298.568 163.175C293.583 149.626 294.652 137.769 310.777 125.487C349.239 99.5935 429.823 153.108 393.194 204.897C384.037 217.843 361.808 225.777 351.98 221.101C338.45 214.665 345.315 200.2 332.397 191.292C318.152 181.467 303.552 176.386 298.568 163.175ZM194.538 259.802C193.586 258.62 193.07 257.172 193.07 255.683C193.07 251.94 196.258 248.907 200.193 248.907C202.492 248.907 204.652 249.965 205.988 251.745C208.084 254.427 210.688 256.533 213.801 258.063C217.042 259.657 220.504 260.454 224.186 260.454C227.868 260.454 231.33 259.657 234.571 258.063C237.631 256.559 240.199 254.499 242.276 251.882V240.811C239.738 240.139 237.283 239.091 235.006 237.665L232.053 235.817C225.4 231.651 219.936 225.983 216.149 219.319C212.529 212.949 215.551 205.001 222.618 202.311L226.881 200.688C241.216 195.23 257.206 195.23 271.541 200.688L275.804 202.311C282.871 205.001 285.893 212.949 282.273 219.319C278.486 225.983 273.021 231.651 266.369 235.817L263.416 237.665C261.251 239.02 258.925 240.035 256.52 240.71V253.281C256.52 253.418 256.516 253.555 256.508 253.691C258.261 255.467 260.296 256.925 262.613 258.063C265.854 259.657 269.315 260.454 272.997 260.454C276.68 260.454 280.141 259.657 283.382 258.063C286.496 256.533 289.1 254.427 291.194 251.745C292.531 249.965 294.69 248.907 296.991 248.907C300.925 248.907 304.114 251.94 304.114 255.683C304.114 257.172 303.598 258.62 302.646 259.802C299.238 264.173 294.997 267.605 289.922 270.101C284.63 272.703 278.988 274.004 272.997 274.004C267.006 274.004 261.365 272.703 256.073 270.101C253.336 268.755 250.843 267.138 248.591 265.248C246.34 267.138 243.847 268.755 241.111 270.101C235.819 272.703 230.178 274.004 224.186 274.004C218.196 274.004 212.555 272.703 207.262 270.101C202.186 267.605 197.945 264.173 194.538 259.802Z" transform="translate(1 26)"/>
  <path fill="#35b2ab" d="M58 421h384v18H58z"/>
  <path fill="#ffd08a" d="M98 454h304v10H98z" opacity="0.9"/>
</svg>
